<svg width="460" height="124" viewBox="0 0 460 124" fill="none" xmlns="http://www.w3.org/2000/svg"><path d="M432.788 99.4207c-8.504 0-12.305-3.411-12.305-11.0356V55.479h-10.305v-8.3269h10.305V25.9838l9.904-.2006v21.3689h11.805v8.3269h-11.805v29.3948c0 4.8156.9 5.9191 5.002 5.9191 2.301 0 4.302-.5016 6.003-1.0032l.8-.301v8.5275l-.4.2007c-2.201.8025-5.102 1.2038-9.004 1.2038zM178.577 98.1164h-45.72v-72.233h10.405v62.7023h35.315v9.5307zM196.385 98.1165h-9.904V47.1521h9.904v50.9644zm0-62.5016h-9.904v-9.8317h9.904v9.8317zM225.298 98.1165h-9.905V55.4789h-10.104v-8.3268h10.104v-8.2266c0-4.0129.601-6.7216 2.101-9.0291 2.101-3.5113 5.903-5.1165 11.906-5.1165 3.301 0 5.402.4013 7.003.7023l.5.1003v8.7282l-.801-.2007c-1.6-.301-3.101-.6019-5.102-.6019-2.101 0-3.701.4013-4.502 1.3042-.8.8026-1.2 2.4077-1.2 4.9158v7.424h11.505v8.3268h-11.505v42.6376zM264.115 99.4207c-15.207 0-24.611-10.3333-24.611-26.987 0-7.7249 2.301-14.3463 6.703-19.1618 4.402-4.8156 10.404-7.3237 17.407-7.3237 14.407 0 23.01 10.0324 23.01 26.6861v2.1068h-37.016c.601 10.1327 5.803 15.7508 14.607 15.7508 8.603 0 12.705-5.3171 15.106-9.4304l.4-.6019 7.404 5.3171-.301.5016c-3.501 6.4208-11.304 13.1424-22.709 13.1424zm-14.307-32.4045h26.412c-.2-6.6214-4.202-13.0421-12.706-13.0421-7.903 0-13.005 4.8156-13.706 13.0421zM306.033 98.1165h-9.905V47.1521h9.905v6.9223c.9-1.6052 2.201-3.11 3.801-4.3139 2.802-2.2071 6.303-3.411 10.105-3.411 1 0 2.101.1003 3.101.301l.5.1003v9.4304l-.8-.1003c-1.1-.2007-2.201-.301-3.201-.301-8.704 0-13.506 5.7185-13.506 16.1521v26.1845zM344.649 99.4207c-11.004 0-17.907-5.8188-17.907-15.2492 0-11.3366 10.204-14.3463 20.208-15.8511l6.303-1.0033c4.802-.8026 6.403-1.5048 6.403-4.7152 0-4.0129-1.201-8.1262-10.505-8.1262-7.603 0-11.104 3.11-11.104 9.8317v.7023l-9.404-.7023v-.6019c.1-11.0356 7.603-17.356 20.508-17.356 13.106 0 19.609 5.0162 19.909 15.4498 0 1.4046 0 2.8091.1 4.2136 0 1.4046.1 2.8091.1 4.2136v16.5534c0 4.013 1.001 4.7152 3.001 4.7152.501 0 1.001-.1003 1.501-.1003l1.101-.2006v6.9223l-.501.1003c-1.1.301-2.701.6019-5.502.6019-4.802 0-7.603-2.0064-8.404-5.8187-2.301 2.5081-6.903 6.4207-15.807 6.4207zm15.207-26.2848c-.6.301-1.601.6019-3.301 1.0032l-9.304 1.9062c-7.504 1.6052-10.105 3.712-10.105 7.9255 0 6.9224 6.803 7.725 9.804 7.725 4.102 0 7.204-1.2039 9.605-3.6117 1.7-1.7055 3.201-4.0129 3.201-9.1294v-5.8188h.1zM394.871 98.1165h-9.904V55.4789h-10.104v-8.3268h10.104v-8.2266c0-4.0129.6-6.7216 2.101-9.0291 2.101-3.5113 5.903-5.1165 11.905-5.1165 3.302 0 5.403.4013 7.003.7023l.501.1003v8.7282l-.801-.2007c-1.601-.301-3.101-.6019-5.102-.6019-2.101 0-3.702.4013-4.502 1.3042-.8.8026-1.201 2.4077-1.201 4.9158v7.424h11.505v8.3268h-11.505v42.6376zM91.0396 35.8155C85.4372 23.1748 75.833 14.8479 64.9283 14.8479c-10.9048 0-20.509 8.3269-26.1114 20.9676 7.5033-3.3106 16.5072-5.3171 26.1114-5.3171 9.6041 0 18.608 1.9061 26.1113 5.3171zM38.7168 88.1844c5.6024 12.6406 15.2066 20.9676 26.1114 20.9676 10.9047 0 20.5089-8.327 26.1113-20.9676-7.5033 3.3107-16.5072 5.3172-26.1113 5.3172-9.6042 0-18.6081-1.9061-26.1114-5.3172zM111.949 62c0-10.9353-8.304-20.5663-20.9094-26.1844C94.341 43.3398 96.3419 52.3689 96.3419 62s-2.0009 18.7605-5.3023 26.1845C103.645 82.5664 111.949 72.9353 111.949 62zM38.7167 35.8156C26.1112 41.4337 17.8076 51.0647 17.8076 62s8.3036 20.5664 20.9091 26.1845C35.4153 80.6602 33.4144 71.6311 33.4144 62c0-9.7314 2.0009-18.7605 5.3023-26.1844z" fill="#E8317C"/></svg>